<svg width="233" height="289" viewBox="0 0 233 289" fill="none" xmlns="http://www.w3.org/2000/svg">
<g opacity="0.5">
<path d="M218.441 27.357L179.052 4.67414L152.217 -10.7797L107.873 -36.31C104.3 -38.3662 99.9041 -38.3611 96.3359 -36.2966L-22.1471 32.2924C-25.7153 34.3569 -27.9115 38.1728 -27.9067 42.2935L-27.7623 166.045C-27.7519 174.928 -18.1286 180.467 -10.4425 176.019L25.6759 155.109L78.374 124.601L136.597 90.8925C141.944 87.7957 143.905 81.0406 141.05 75.5586C134.298 62.584 120.718 53.7273 105.076 53.7455C98.1507 53.7536 91.6373 55.4979 85.9452 58.5736L83.773 59.8328L42.8898 83.4993C35.2037 87.9526 25.5803 82.4084 25.57 73.5251L25.5698 73.3471C25.565 69.2263 27.7611 65.4105 31.3293 63.3459L96.3166 25.7196C99.8848 23.655 104.286 23.6499 107.859 25.7061L125.341 35.7718L156.051 53.4595C156.051 53.4595 156.057 53.4595 156.062 53.4649L160.531 56.0432C160.828 56.2155 161.13 56.3769 161.438 56.5222C166.678 58.9864 172.531 60.3603 178.702 60.3531C184.948 60.3458 190.868 58.9204 196.146 56.3846C196.431 56.2441 196.712 56.0981 196.986 55.936L201.153 53.5255L232.118 35.5987L232.118 35.2373L218.441 27.357Z" fill="white"/>
<path d="M214.856 74.4156L178.737 95.3257L126.039 125.834L67.8162 159.542C62.4694 162.639 60.5085 169.394 63.3628 174.876C70.1146 187.851 83.6953 196.708 99.3369 196.689C106.262 196.681 112.776 194.937 118.468 191.861L120.64 190.602L161.523 166.936C169.209 162.482 178.833 168.027 178.843 176.91L178.843 177.088C178.848 181.209 176.652 185.024 173.084 187.089L108.096 224.715C104.528 226.78 100.127 226.785 96.5541 224.729L79.0723 214.663L48.3619 196.975C48.3619 196.975 48.3565 196.975 48.3511 196.97L43.8821 194.392C43.5853 194.219 43.2831 194.058 42.9754 193.913C37.7353 191.449 31.8816 190.075 25.7113 190.082C19.4655 190.089 13.5449 191.515 8.26751 194.05C7.98181 194.191 7.70151 194.337 7.42662 194.499L3.26016 196.909L-27.7054 214.836L-27.705 215.198L-14.0283 223.078L25.361 245.761L52.1962 261.215L96.5402 286.745C100.113 288.801 104.509 288.796 108.077 286.731L226.56 218.143C230.128 216.078 232.325 212.262 232.32 208.141L232.175 84.3898C232.165 75.5065 222.542 69.9676 214.856 74.4156Z" fill="white"/>
</g>
</svg>
